0
SECTION
2
HEADER
0
ENDSEC
0
SECTION
2
TABLES
0
TABLE
2
LAYER
70
6
0
LAYER
2
ARCH_WALL
70
0
62
7
6
CONTINUOUS
0
LAYER
2
ROOM
70
0
62
3
6
CONTINUOUS
0
LAYER
2
SAN_WC
70
0
62
1
6
CONTINUOUS
0
LAYER
2
SAN_SHOWER
70
0
62
4
6
CONTINUOUS
0
LAYER
2
SAN_PIPES
70
0
62
6
6
CONTINUOUS
0
LAYER
2
HEATING_PIPES
70
0
62
2
6
CONTINUOUS
0
ENDTAB
0
ENDSEC
0
SECTION
2
ENTITIES
0
LINE
8
ARCH_WALL
10
0
20
0
30
0
11
30000
21
0
31
0
0
LINE
8
ARCH_WALL
10
30000
20
0
30
0
11
30000
21
20000
31
0
0
LINE
8
ARCH_WALL
10
30000
20
20000
30
0
11
0
21
20000
31
0
0
LINE
8
ARCH_WALL
10
0
20
20000
30
0
11
0
21
0
31
0
0
TEXT
8
ROOM
10
2500
20
15000
30
0
40
300
1
Umkleide Damen
0
TEXT
8
ROOM
10
2500
20
5000
30
0
40
300
1
Umkleide Herren
0
TEXT
8
ROOM
10
8500
20
15000
30
0
40
300
1
Duschen Damen
0
TEXT
8
ROOM
10
8500
20
5000
30
0
40
300
1
Duschen Herren
0
TEXT
8
ROOM
10
18000
20
10000
30
0
40
350
1
Schwimmhalle
0
TEXT
8
ROOM
10
5000
20
10000
30
0
40
250
1
Personal- & Behinderten-WC
0
TEXT
8
ROOM
10
25000
20
15000
30
0
40
300
1
Technikzentrale / Hebeanlage
0
TEXT
8
ROOM
10
25000
20
5000
30
0
40
300
1
Kessel- & Verteilerraum
0
TEXT
8
ROOM
10
15000
20
18000
30
0
40
300
1
Lüftungszentrale OG
0
ENDSEC
0
EOF
