0
SECTION
2
HEADER
0
ENDSEC
0
SECTION
2
TABLES
0
TABLE
2
LAYER
70
7
0
LAYER
2
ARCH_WALL
70
0
62
7
6
CONTINUOUS
0
LAYER
2
ROOM
70
0
62
3
6
CONTINUOUS
0
LAYER
2
SAN_WC
70
0
62
1
6
CONTINUOUS
0
LAYER
2
SAN_WASHBASIN
70
0
62
5
6
CONTINUOUS
0
LAYER
2
SAN_SHOWER
70
0
62
4
6
CONTINUOUS
0
LAYER
2
SAN_PIPE_COLD
70
0
62
6
6
CONTINUOUS
0
LAYER
2
SAN_PIPE_HOT
70
0
62
2
6
CONTINUOUS
0
ENDTAB
0
ENDSEC
0
SECTION
2
ENTITIES
0
LINE
8
ARCH_WALL
10
0
20
0
30
0
11
16000
21
0
31
0
0
LINE
8
ARCH_WALL
10
16000
20
0
30
0
11
16000
21
10000
31
0
0
LINE
8
ARCH_WALL
10
16000
20
10000
30
0
11
0
21
10000
31
0
0
LINE
8
ARCH_WALL
10
0
20
10000
30
0
11
0
21
0
31
0
0
LINE
8
ARCH_WALL
10
6000
20
0
30
0
11
6000
21
10000
31
0
0
LINE
8
ARCH_WALL
10
6000
20
5000
30
0
11
16000
21
5000
31
0
0
LINE
8
ARCH_WALL
10
11000
20
5000
30
0
11
11000
21
10000
31
0
0
TEXT
8
ROOM
10
1800
20
8200
30
0
40
250
1
BAD_EG
0
TEXT
8
ROOM
10
8200
20
8200
30
0
40
250
1
KUECHE
0
TEXT
8
ROOM
10
12500
20
8200
30
0
40
250
1
HWR
0
TEXT
8
ROOM
10
1800
20
2200
30
0
40
250
1
GAESTE_WC
0
TEXT
8
ROOM
10
8200
20
2200
30
0
40
250
1
FLUR
0
TEXT
8
SAN_WC
10
1800
20
7000
30
0
40
180
1
WC
0
TEXT
8
SAN_WASHBASIN
10
3200
20
7200
30
0
40
180
1
WB1
0
TEXT
8
SAN_WASHBASIN
10
4200
20
7200
30
0
40
180
1
WB2
0
TEXT
8
SAN_SHOWER
10
5000
20
8500
30
0
40
180
1
DUSCHE
0
TEXT
8
SAN_WC
10
2200
20
1700
30
0
40
180
1
WC
0
TEXT
8
SAN_WASHBASIN
10
3500
20
1700
30
0
40
180
1
WB
0
TEXT
8
SAN_WASHBASIN
10
8200
20
7200
30
0
40
180
1
SPUELE
0
LINE
8
SAN_PIPE_COLD
10
3000
20
7200
30
0
11
8000
21
7200
31
0
0
LINE
8
SAN_PIPE_HOT
10
3000
20
7000
30
0
11
8000
21
7000
31
0
0
LINE
8
SAN_PIPE_COLD
10
8000
20
7200
30
0
11
13000
21
7200
31
0
0
LINE
8
SAN_PIPE_HOT
10
8000
20
7000
30
0
11
13000
21
7000
31
0
0
ENDSEC
0
EOF
